<?xml version="1.0" encoding="UTF-8"?>
<!DOCTYPE svg PUBLIC "-//W3C//DTD SVG 1.1//EN" "http://www.w3.org/Graphics/SVG/1.1/DTD/svg11.dtd">
<!-- Creator: CorelDRAW -->
<svg xmlns="http://www.w3.org/2000/svg" xml:space="preserve" width="174px" height="55px" style="shape-rendering:geometricPrecision; text-rendering:geometricPrecision; image-rendering:optimizeQuality; fill-rule:evenodd; clip-rule:evenodd"
viewBox="0 0 162.201 51.2106"
 xmlns:xlink="http://www.w3.org/1999/xlink">
 <defs>
  <style type="text/css">
   <![CDATA[
    .fil0 {fill:#D82624;fill-rule:nonzero}
    .fil1 {fill:white;fill-rule:nonzero}
   ]]>
  </style>
 </defs>
 <g id="Warstwa_x0020_1">
  <metadata id="CorelCorpID_0Corel-Layer"/>
  <polygon class="fil0" points="162.201,0.000469575 162.201,51.2104 0,51.2099 0,0 "/>
  <polygon class="fil1" points="153.914,18.4369 81.0198,8.33714 8.35154,18.4369 8.35154,22.1029 81.0198,16.1551 153.914,22.1029 "/>
  <polygon class="fil1" points="8.35154,26.3558 20.8712,26.3558 20.8712,29.5435 12.9252,29.5435 12.9252,33.0088 20.4093,33.0088 20.4093,36.1964 12.9252,36.1964 12.9252,39.7536 21.0559,39.7536 21.0559,42.9875 8.35154,42.9875 "/>
  <polygon class="fil1" points="23.6182,26.3098 30.8944,26.3098 33.6663,37.6053 36.3,26.3098 43.5527,26.2868 43.5758,42.9872 39.2103,42.9872 39.418,28.9894 35.4681,42.9872 31.3105,42.9872 27.4989,28.8738 27.6144,42.9872 23.6182,42.9872 "/>
  <polygon class="fil1" points="46.715,26.3098 53.9912,26.3098 56.763,37.6053 59.3968,26.3098 66.6494,26.2868 66.6726,42.9872 62.3071,42.9872 62.5148,28.9894 58.5649,42.9872 54.4071,42.9872 50.5957,28.8738 50.7111,42.9872 46.715,42.9872 "/>
  <polygon class="fil1" points="69.9505,26.3558 82.4703,26.3558 82.4703,29.5435 74.5242,29.5435 74.5242,33.0088 82.0081,33.0088 82.0081,36.1964 74.5242,36.1964 74.5242,39.7536 82.6546,39.7536 82.6546,42.9875 69.9505,42.9875 "/>
  <path class="fil1" d="M89.9065 33.4707l1.73257 0c1.01632,0 1.52455,0 1.91696,-0.138838 1.01616,-0.323381 1.22418,-1.36255 1.22418,-1.89395 0,-2.05611 -1.80129,-2.05611 -3.14114,-2.05611l-1.73257 0 0 4.0889zm-4.64331 -7.16086l7.71574 0c3.0023,0 4.13414,0.184699 5.1276,1.20133 0.508706,0.508236 1.15515,1.43205 1.15515,3.23381 0,1.82461 -0.739111,2.61021 -1.52455,3.09512 -1.06233,0.66977 -2.07928,0.785599 -2.54056,0.854783l0 0.0923497c3.23334,0.0923497 3.41866,1.52455 3.78759,4.08859 0.162003,1.13199 0.392878,2.93375 0.785755,4.11144l-5.01271 0c-0.277362,-1.016 -0.392878,-2.28652 -0.554098,-3.76521 -0.208491,-2.00962 -0.277362,-2.74873 -2.35617,-2.74873l-1.94044 0 0 6.51394 -4.64331 0 0 -16.6774z"/>
  <path class="fil1" d="M106.051 37.6746c0.0226961,0.66977 0.0685579,2.58704 2.81761,2.58704 0.392878,0 2.472,0 2.472,-1.89411 0,-0.785286 -0.323224,-1.31669 -1.43252,-1.61675l-4.08874 -1.0628c-1.15468,-0.300528 -4.13476,-1.08581 -4.13476,-4.5735 0,-2.70256 2.03279,-5.22058 7.02233,-5.22058 6.51363,0 6.79068,3.53418 6.81416,5.31293l-4.6887 0c0,-0.508393 0.0226961,-2.31015 -2.19479,-2.31015 -1.34001,0 -2.19448,0.762276 -2.19448,1.75558 0,1.22434 1.01679,1.52455 1.68624,1.70957l3.1186 0.808451c2.21733,0.577107 4.85071,1.27036 4.85071,4.80438 0,3.7195 -3.18747,5.38242 -7.36872,5.38242 -1.7321,0 -4.52733,-0.277362 -6.05188,-1.98661 -1.22387,-1.34001 -1.24719,-2.97992 -1.27036,-3.69587l4.64331 0z"/>
  <path class="fil1" d="M126.653 39.9843c3.30315,0 3.85709,-3.04879 3.85709,-5.35894 0,-2.333 -0.553942,-3.48769 -1.06233,-4.22727 -0.670083,-0.92381 -1.75527,-1.20086 -2.77206,-1.20086 -3.04926,0 -3.88072,2.63338 -3.88072,5.49747 0,2.65638 0.785286,5.2896 3.85803,5.2896zm-6.32971 -11.8267c2.10229,-2.12498 5.2896,-2.30968 6.51394,-2.30968 6.65262,0 8.45438,4.78137 8.45438,8.84679 0,6.65247 -4.71171,8.68526 -8.68494,8.68526 -4.43498,0 -8.57037,-2.44868 -8.57037,-8.66225 0,-1.10882 0.185012,-4.43466 2.28699,-6.56012z"/>
  <polygon class="fil1" points="137.9,26.3098 144.275,26.3098 149.911,38.7373 149.866,26.3098 153.908,26.3098 153.908,42.9872 147.671,42.9872 141.919,30.029 141.966,42.9872 137.9,42.9872 "/>
 </g>
</svg>
